<?xml version="1.0" standalone="no"?><!DOCTYPE svg PUBLIC "-//W3C//DTD SVG 1.1//EN" "http://www.w3.org/Graphics/SVG/1.1/DTD/svg11.dtd"><svg t="1588771205018" class="icon" viewBox="0 0 1027 1024" version="1.1" xmlns="http://www.w3.org/2000/svg" p-id="10317" xmlns:xlink="http://www.w3.org/1999/xlink" width="200.5859375" height="200"><defs><style type="text/css"></style></defs><path d="M798.208 1024h-198.144c-20.992 0-36.864-15.872-36.864-36.864V670.72H449.536v316.416c0 20.992-15.872 36.864-36.864 36.864H217.6c-60.928 0-110.592-49.664-110.592-110.592v-323.072h-20.992C38.4 590.848 0 552.448 0 504.32c0-22.528 8.192-43.008 24.064-59.392L396.8 50.176C457.216-13.824 558.08-16.896 623.616 43.52c1.536 3.072 3.072 4.608 6.144 6.144l372.736 395.264c33.792 33.792 31.744 88.064-1.536 121.344-15.872 15.872-38.4 24.064-60.928 24.064h-31.744v323.072c0 60.928-49.664 110.592-110.08 110.592z m-160.256-73.728h159.744c20.992 0 38.4-17.408 38.4-38.4v-358.4c0-20.992 15.872-36.864 36.864-36.864H942.08c4.608 0 9.728-3.072 11.264-8.192 1.536-4.608 1.536-9.728-3.072-14.336l-374.272-393.216c-33.792-35.328-88.064-36.864-123.392-3.072-1.536 0-3.072 1.536-3.072 3.072L76.8 494.592c-4.608 4.608-4.608 12.8 0 17.408 3.072 3.072 6.144 3.072 9.728 3.072h59.392c20.992 0 36.864 15.872 36.864 36.864v359.936c0 20.992 17.408 38.4 38.4 38.4H378.88V670.72c0-41.472 33.792-73.728 73.728-73.728h113.664c41.472 0 73.728 33.792 73.728 73.728l-2.048 279.552z" p-id="10318" fill="#bfbfbf"></path></svg>