<?xml version="1.0" standalone="no"?><!DOCTYPE svg PUBLIC "-//W3C//DTD SVG 1.1//EN" "http://www.w3.org/Graphics/SVG/1.1/DTD/svg11.dtd"><svg t="1588770683709" class="icon" viewBox="0 0 1024 1024" version="1.1" xmlns="http://www.w3.org/2000/svg" p-id="7181" xmlns:xlink="http://www.w3.org/1999/xlink" width="200" height="200"><defs><style type="text/css"></style></defs><path d="M352.904 0H121.492C52.068 0 0 52.068 0 115.706V347.12c0 63.638 52.068 115.706 115.706 115.706H347.12c63.638 0 115.706-52.068 115.706-115.706V115.706C468.61 52.068 416.542 0 352.904 0z m46.282 341.333c0 34.712-28.926 57.853-57.853 57.853h-208.27c-34.713 0-57.854-28.926-57.854-57.853V127.277c0-34.712 28.927-57.853 57.853-57.853h208.271c34.712 0 57.853 28.926 57.853 57.853v214.056zM902.508 0H671.096C607.458 0 555.39 52.068 555.39 115.706V347.12c0 63.638 52.068 115.706 115.706 115.706h231.412c63.639 0 115.707-52.068 115.707-115.706V115.706C1024 52.068 966.147 0 902.508 0z m52.068 341.333c0 34.712-28.926 57.853-57.853 57.853H688.452c-34.712 0-57.853-28.926-57.853-57.853V127.277c0-34.712 28.926-57.853 57.853-57.853h208.271c34.712 0 57.853 28.926 57.853 57.853v214.056zM352.904 555.39H121.492c-63.639 0-115.707 52.068-115.707 115.706v231.412c0 63.639 52.068 115.707 115.707 115.707h231.412c63.638 0 115.706-52.068 115.706-115.707V671.096c0-63.638-52.068-115.706-115.706-115.706z m46.282 341.333c0 34.712-28.926 57.853-57.853 57.853h-208.27c-34.713 0-57.854-28.926-57.854-57.853V688.452c0-34.712 28.927-57.853 57.853-57.853h208.271c34.712 0 57.853 28.926 57.853 57.853v208.271zM902.508 555.39H671.096c-63.638 0-115.706 52.068-115.706 115.706v231.412c0 63.639 52.068 115.707 115.706 115.707h231.412c63.639 0 115.707-52.068 115.707-115.707V671.096C1024 607.458 966.147 555.39 902.508 555.39z m52.068 341.333c0 34.712-28.926 57.853-57.853 57.853H688.452c-34.712 0-57.853-28.926-57.853-57.853V688.452c0-34.712 28.926-57.853 57.853-57.853h208.271c34.712 0 57.853 28.926 57.853 57.853v208.271z" p-id="7182" fill="#C65624"></path></svg>