<?xml version="1.0" standalone="no"?><!DOCTYPE svg PUBLIC "-//W3C//DTD SVG 1.1//EN" "http://www.w3.org/Graphics/SVG/1.1/DTD/svg11.dtd"><svg t="1589725179254" class="icon" viewBox="0 0 1024 1024" version="1.1" xmlns="http://www.w3.org/2000/svg" p-id="4183" xmlns:xlink="http://www.w3.org/1999/xlink" width="200" height="200"><defs><style type="text/css"></style></defs><path d="M729.004178 180.937813H289.838181V106.416122a38.683015 38.683015 0 0 1 38.967449-36.407544h366.919778a33.563204 33.563204 0 0 1 33.27877 36.407544z m258.266015 0H804.948039V106.416122A106.94716 106.94716 0 0 0 695.725408 0.03783H329.090064A107.231594 107.231594 0 0 0 219.014131 106.416122v74.521691H36.691978a34.985374 34.985374 0 1 0 0 69.970748h950.578215a34.985374 34.985374 0 1 0 0-69.970748zM657.895694 764.59625V362.406664a38.114147 38.114147 0 0 0-75.943861 0v402.189586a38.114147 38.114147 0 0 0 75.943861 0z m-222.142904 0V362.406664a34.985374 34.985374 0 1 0-69.970748 0v402.189586a34.985374 34.985374 0 1 0 69.970748 0z m407.024963-438.028262a37.829714 37.829714 0 0 0-38.114148 36.691978V910.226426A36.407544 36.407544 0 0 1 767.971628 947.202837H255.990543A36.691978 36.691978 0 0 1 219.014131 910.226426V361.837797a34.985374 34.985374 0 1 0-69.970748 0V910.226426A110.644801 110.644801 0 0 0 255.990543 1024h511.981085a115.480178 115.480178 0 0 0 113.773574-113.773574V363.259966a37.829714 37.829714 0 0 0-38.967449-36.407544z" p-id="4184" fill="#707070"></path></svg>