<?xml version="1.0" standalone="no"?><!DOCTYPE svg PUBLIC "-//W3C//DTD SVG 1.1//EN" "http://www.w3.org/Graphics/SVG/1.1/DTD/svg11.dtd"><svg t="1589726336554" class="icon" viewBox="0 0 1024 1024" version="1.1" xmlns="http://www.w3.org/2000/svg" p-id="7440" xmlns:xlink="http://www.w3.org/1999/xlink" width="200" height="200"><defs><style type="text/css"></style></defs><path d="M761.249 208.843l-299.717 303.684 299.716 303.689c9.266 9.26 16.212 19.845 20.844 31.758 4.629 11.906 6.946 23.984 6.946 36.224 0 12.23899999-2.316 24.14899999-6.946 35.72899999-4.632 11.573-11.578 21.998-20.844 31.25700001-18.524 19.19000001-40.689 28.783-66.492 28.783-25.804 0-47.969-9.593-66.493-28.783l-362.23899999-365.211c-9.26-9.265-16.539-20.344-21.83200001-33.249-5.293-12.899-8.27199999-25.969-8.934-39.202-0.66-13.231 0.994-25.966 4.96-38.20900001 3.973-12.24 10.586-22.327 19.85099999-30.26499999l368.19100001-371.169c18.523-18.526 40.689-27.79 66.493-27.79 25.802 0 47.968 9.265 66.491 27.79 9.266 9.26 16.212 19.845 20.844 31.758 4.629 11.906 6.946 23.984 6.946 36.223 0 12.24-2.317 24.151-6.946 35.729-4.63 11.574-11.577 21.998-20.843 31.258v0zM761.249 208.843z" p-id="7441"></path></svg>