<?xml version="1.0" standalone="no"?><!DOCTYPE svg PUBLIC "-//W3C//DTD SVG 1.1//EN" "http://www.w3.org/Graphics/SVG/1.1/DTD/svg11.dtd"><svg t="1587398602377" class="icon" viewBox="0 0 1024 1024" version="1.1" xmlns="http://www.w3.org/2000/svg" p-id="51546" xmlns:xlink="http://www.w3.org/1999/xlink" width="200" height="200"><defs><style type="text/css"></style></defs><path d="M512 96.8625c231.666667 0 421.208333 189.541667 421.208333 421.216667 0 231.6875-189.541667 421.229167-421.208333 421.229167S90.779167 749.770833 90.779167 518.083333C90.779167 286.404167 278.416667 96.8625 512 96.8625M512 58.5625c-254.645833 0-459.520833 204.875-459.520833 459.520833 0 254.666667 204.875 459.520833 459.520833 459.520833 254.666667 0 459.520833-204.854167 459.520833-459.520833C971.516667 263.4375 764.729167 58.5625 512 58.5625L512 58.5625z" p-id="51547" fill="#1296db"></path><path d="M630.479167 232 393.541667 232c-35.708333 0-64.625 28.945833-64.625 64.6125L328.916667 727.375c0 35.6875 28.925 64.625 64.625 64.625l236.9375 0c35.6875 0 64.604167-28.9375 64.604167-64.625L695.083333 296.6125C695.083333 260.945833 666.166667 232 630.479167 232zM490.466667 253.529167l43.070833 0c5.958333 0 10.770833 4.820833 10.770833 10.779167 0 5.945833-4.8125 10.770833-10.770833 10.770833l-43.070833 0c-5.970833 0-10.758333-4.820833-10.758333-10.770833C479.708333 258.354167 484.5 253.529167 490.466667 253.529167zM512 765.666667c-15.195833 0-27.529167-12.3125-27.529167-27.520833 0-15.208333 12.333333-27.541667 27.529167-27.541667 15.195833 0 27.541667 12.333333 27.541667 27.541667C539.541667 753.354167 527.195833 765.666667 512 765.666667zM652 673.5625c0 5.916667-4.8125 10.75-10.770833 10.75L382.779167 684.3125c-5.966667 0-10.779167-4.833333-10.779167-10.75L372 307.375c0-5.945833 4.8125-10.758333 10.779167-10.758333l258.445833 0c5.958333 0 10.770833 4.8125 10.770833 10.758333L651.995833 673.5625z" p-id="51548" fill="#1296db"></path></svg>