<?xml version="1.0" standalone="no"?><!DOCTYPE svg PUBLIC "-//W3C//DTD SVG 1.1//EN" "http://www.w3.org/Graphics/SVG/1.1/DTD/svg11.dtd"><svg t="1587397899236" class="icon" viewBox="0 0 1024 1024" version="1.1" xmlns="http://www.w3.org/2000/svg" p-id="49325" xmlns:xlink="http://www.w3.org/1999/xlink" width="200" height="200"><defs><style type="text/css"></style></defs><path d="M512 64C264.57 64 64 264.58 64 512s200.57 448 448 448 448-200.58 448-448S759.42 64 512 64z m0 864C282.62 928 96 741.38 96 512S282.62 96 512 96s416 186.62 416 416-186.62 416-416 416z" p-id="49326" fill="#e16531"></path><path d="M765.21 341.61h-17.75c-2.1 0-3.95 0.77-5.92 1.2v-37.88a57 57 0 0 0-56.8-56.8H341.61a57 57 0 0 0-56.8 56.8v38.36a27.5 27.5 0 0 0-8.28-1.68h-17.75a28.48 28.48 0 0 0-28.4 28.4v60.35a28.48 28.48 0 0 0 28.4 28.4h17.75a27.51 27.51 0 0 0 8.28-1.68V693a56.53 56.53 0 0 0 17.75 41v41.83h79.28v-26h258v26h79.28v-37.89A56.59 56.59 0 0 0 741.55 693V457.55c2 0.44 3.82 1.2 5.92 1.2h17.75a28.48 28.48 0 0 0 28.4-28.4V370a28.48 28.48 0 0 0-28.41-28.39z m-460.28 88.75V317.95c0-15.62 13-28.4 28.81-28.4h356.52c15.84 0 28.81 12.78 28.81 28.4v218.9c0 15.62-13 28.4-28.81 28.4H333.74c-15.84 0-28.81-12.78-28.81-28.4z m72.18 252h-69.82a17.75 17.75 0 1 1 0-35.5h69.81a17.75 17.75 0 1 1 0 35.5z m339.59 0h-69.81a17.75 17.75 0 1 1 0-35.5h69.81a17.75 17.75 0 1 1 0 35.5z" p-id="49327" fill="#e16531"></path></svg>