<?xml version="1.0" standalone="no"?><!DOCTYPE svg PUBLIC "-//W3C//DTD SVG 1.1//EN" "http://www.w3.org/Graphics/SVG/1.1/DTD/svg11.dtd"><svg t="1587398716429" class="icon" viewBox="0 0 1024 1024" version="1.1" xmlns="http://www.w3.org/2000/svg" p-id="53346" xmlns:xlink="http://www.w3.org/1999/xlink" width="200" height="200"><defs><style type="text/css"></style></defs><path d="M511.995117 1009.670641c-67.171987 0-132.349224-13.160484-193.720624-39.121424-59.262317-25.066952-112.48565-60.948124-158.182451-106.644925-45.696801-45.693152-81.577973-98.916486-106.646141-158.182451-25.96094-61.3714-39.116559-126.543772-39.116559-193.726705 0-67.171987 13.155619-132.349224 39.116559-193.720624 25.068168-59.262317 60.94934-112.48565 106.646141-158.182451s98.920134-81.577973 158.182451-106.646141c61.3714-25.959724 126.548637-39.116559 193.720624-39.116559 67.173203 0 132.358954 13.156835 193.72184 39.116559 59.270831 25.068168 112.489299 60.954205 158.1861 106.646141 45.698018 45.696801 81.574324 98.920134 106.646141 158.182451 25.956075 61.3714 39.121424 126.548637 39.121424 193.730354 0 67.173203-13.165349 132.35044-39.121424 193.72184-25.071817 59.265966-60.948124 112.484434-106.646141 158.177586-45.696801 45.696801-98.915269 81.582839-158.17637 106.644925C644.350422 996.505292 579.16832 1009.670641 511.995117 1009.670641L511.995117 1009.670641 511.995117 1009.670641zM511.995117 48.415256c-62.582846 0-123.293789 12.257981-180.440941 36.427296C276.349472 108.18964 226.775071 141.61508 184.194458 184.194477c-42.580613 42.575747-76.004837 92.155013-99.351925 147.359717-24.169314 57.147152-36.428512 117.858095-36.428512 180.440941 0 62.587711 12.259198 123.303519 36.428512 180.447023 23.347088 55.199838 56.776177 104.777888 99.351925 147.353635 42.580613 42.580613 92.155013 76.009702 147.359717 99.358006 57.147152 24.17418 117.858095 36.427296 180.440941 36.427296 62.592576 0 123.303519-12.253116 180.447023-36.427296 55.198622-23.351953 104.777888-56.777394 147.353635-99.358006 42.585478-42.575747 76.009702-92.148932 99.358006-147.353635 24.17418-57.143503 36.427296-117.854447 36.427296-180.447023 0-62.587711-12.253116-123.298654-36.427296-180.440941-23.35317-55.204704-56.772528-104.783969-99.358006-147.359717-42.575747-42.579396-92.155013-76.009702-147.353635-99.351925C635.298636 60.673238 574.587693 48.415256 511.995117 48.415256L511.995117 48.415256 511.995117 48.415256zM444.238084 640.163898M638.858778 396.590338c8.250237 0 16.363031 0.6264 24.522044 1.520389-21.966575-102.291748-131.297115-178.275908-256.145349-178.275908-139.548568 0-253.859901 95.076592-253.859901 215.88789 0 69.710428 38.013365 126.952452 101.581423 171.420779l-25.374678 76.344187 88.760289-44.471976c31.738417 6.233593 57.198237 12.687339 88.894084 12.687339 7.979 0 15.866776-0.355163 23.666978-0.938992-4.929708-16.990647-7.841556-34.742705-7.841556-53.25739C423.103466 486.603428 518.318717 396.590338 638.858778 396.590338L638.858778 396.590338 638.858778 396.590338zM502.405721 327.778764c19.188521 0 31.783421 12.596116 31.783421 31.692197 0 19.009723-12.5949 31.738417-31.783421 31.738417-18.963504 0-38.059585-12.728694-38.059585-31.738417C464.346136 340.328661 483.395998 327.778764 502.405721 327.778764L502.405721 327.778764 502.405721 327.778764zM324.751348 391.209379c-19.049862 0-38.238383-12.728694-38.238383-31.738417 0-19.096081 19.188521-31.692197 38.238383-31.692197 19.051078 0 31.697063 12.551112 31.697063 31.692197C356.448411 378.480685 343.802426 391.209379 324.751348 391.209379L324.751348 391.209379 324.751348 391.209379zM870.61831 594.459799c0-101.490199-101.577774-184.199342-215.667738-184.199342-120.807649 0-215.88789 82.75293-215.88789 184.199342 0 101.757788 95.126461 184.196909 215.88789 184.196909 25.283455 0 50.79436-6.322384 76.164173-12.688556l69.617988 38.193379-19.096081-63.471969C832.604944 702.40496 870.61831 651.70304 870.61831 594.459799L870.61831 594.459799 870.61831 594.459799zM584.932417 562.676378c-12.596116 0-25.372246-12.549896-25.372246-25.371029 0-12.642336 12.774914-25.372246 25.372246-25.372246 19.276095 0 31.783421 12.728694 31.783421 25.372246C616.715838 550.126482 604.208513 562.676378 584.932417 562.676378L584.932417 562.676378 584.932417 562.676378zM724.573425 562.676378c-12.507325 0-25.238452-12.549896-25.238452-25.371029 0-12.642336 12.68369-25.372246 25.238452-25.372246 19.097298 0 31.779772 12.728694 31.779772 25.372246C756.353197 550.126482 743.669506 562.676378 724.573425 562.676378L724.573425 562.676378 724.573425 562.676378zM724.573425 562.676378" p-id="53347" fill="#58c45e"></path></svg>