<?xml version="1.0" standalone="no"?><!DOCTYPE svg PUBLIC "-//W3C//DTD SVG 1.1//EN" "http://www.w3.org/Graphics/SVG/1.1/DTD/svg11.dtd"><svg t="1589623970802" class="icon" viewBox="0 0 1024 1024" version="1.1" xmlns="http://www.w3.org/2000/svg" p-id="2100" xmlns:xlink="http://www.w3.org/1999/xlink" width="200" height="200"><defs><style type="text/css"></style></defs><path d="M512 64C264.576 64 64 264.576 64 512c0 247.422 200.576 448 448 448 247.422 0 448-200.578 448-448C960 264.576 759.422 64 512 64zM668.144 759.402 355.856 759.402l0-70.208 52.65-55.312c95.642-98.048 141.162-154.776 141.162-211.954 0-40.772-19.274-61.446-57.286-61.446-29.21 0-56.208 16.692-73.712 30.694l-20.648 16.516-36.866-87.42 11.472-9.476c35.538-29.362 84.168-46.2 133.426-46.2 48.492 0 88.506 16.018 115.726 46.32 23.762 26.46 36.852 63.352 36.852 103.878 0 94.442-68.95 171.816-139.57 242.974l-4.484 4.556 153.566 0L668.144 759.402z" p-id="2101" fill="#ffffff"></path></svg>