<?xml version="1.0" standalone="no"?><!DOCTYPE svg PUBLIC "-//W3C//DTD SVG 1.1//EN" "http://www.w3.org/Graphics/SVG/1.1/DTD/svg11.dtd"><svg t="1589624007632" class="icon" viewBox="0 0 1024 1024" version="1.1" xmlns="http://www.w3.org/2000/svg" p-id="3045" xmlns:xlink="http://www.w3.org/1999/xlink" width="200" height="200"><defs><style type="text/css"></style></defs><path d="M512 64c-247.296 0-448 200.704-448 448s200.704 448 448 448 448-200.704 448-448-200.704-448-448-448z m108.032 653.824c-32.256 29.696-77.312 45.056-130.56 45.056-54.272 0-98.816-16.896-120.32-31.232l-12.8-8.704 31.232-92.16L409.6 645.12c13.312 8.704 45.056 22.016 77.312 22.016 33.792 0 69.632-16.384 69.632-61.44 0-31.232-21.504-64.512-81.408-64.512H424.96V452.096h49.152c28.672 0 69.12-16.384 69.12-52.736 0-27.648-17.92-43.008-50.176-43.008-25.6 0-52.736 12.288-68.096 23.04L403.456 394.24l-30.72-88.064 11.776-8.704c23.04-16.896 69.12-36.352 124.416-36.352 99.84 0 144.896 64 144.896 127.488 0 41.472-18.944 77.312-52.736 101.888 37.376 20.992 67.072 60.416 67.072 117.248-0.512 43.008-17.408 81.92-48.128 110.08z" p-id="3046" fill="#ffffff"></path></svg>