<?xml version="1.0" standalone="no"?><!DOCTYPE svg PUBLIC "-//W3C//DTD SVG 1.1//EN" "http://www.w3.org/Graphics/SVG/1.1/DTD/svg11.dtd"><svg t="1589972112849" class="icon" viewBox="0 0 1096 1024" version="1.1" xmlns="http://www.w3.org/2000/svg" p-id="9612" xmlns:xlink="http://www.w3.org/1999/xlink" width="214.0625" height="200"><defs><style type="text/css"></style></defs><path d="M285.630993 366.973671h527.294664c13.183933 0 26.366637-19.779584 26.366637-43.950127 0-24.169315-10.982926-43.948898-26.366637-43.948898H285.630993c-13.183933 0-26.367865 19.779584-26.367865 43.948898 0 24.170543 10.987839 43.950127 26.367865 43.950127z m0 248.308451h527.294664c13.183933 0 26.366637-19.779584 26.366637-43.948898 0-24.177913-10.982926-43.94767-26.366637-43.94767H285.630993c-13.183933 0-26.367865 19.769758-26.367865 43.94767 0 24.169315 10.987839 43.948898 26.367865 43.948898zM0.011054 96.687085c0-52.738187 37.348334-96.687085 83.484729-96.687085h929.367761c46.138851 0 83.484729 43.948898 83.484729 96.687085v703.177463c0 52.736959-37.345878 96.689542-83.484729 96.689542h-155.998815l-112.046232 127.447138-112.049916-127.447138H83.495783c-46.136395 0-83.484729-43.952583-83.484729-96.689542V96.687085z" p-id="9613" fill="#C65624"></path></svg>