<?xml version="1.0" standalone="no"?><!DOCTYPE svg PUBLIC "-//W3C//DTD SVG 1.1//EN" "http://www.w3.org/Graphics/SVG/1.1/DTD/svg11.dtd"><svg t="1589971623943" class="icon" viewBox="0 0 1024 1024" version="1.1" xmlns="http://www.w3.org/2000/svg" p-id="4760" width="200" height="200" xmlns:xlink="http://www.w3.org/1999/xlink"><defs><style type="text/css"></style></defs><path d="M896.182857 347.611429h-402.285714c-20.114286 0-36.571429 16.457143-36.571429 36.571428v256c0 20.114286 16.457143 36.571429 36.571429 36.571429h402.285714v182.857143c0 20.114286-16.457143 36.571429-36.571428 36.571428h-694.857143c-20.114286 0-36.571429-16.457143-36.571429-36.571428v-694.857143c0-20.114286 16.457143-36.571429 36.571429-36.571429h694.857143c20.114286 0 36.571429 16.457143 36.571428 36.571429v182.857143z" p-id="4761" fill="#C65624"></path><path d="M548.754286 402.468571h365.714285c20.114286 0 36.571429 16.457143 36.571429 36.571429v146.285714c0 20.114286-16.457143 36.571429-36.571429 36.571429h-365.714285c-20.114286 0-36.571429-16.457143-36.571429-36.571429v-146.285714c0-20.114286 16.457143-36.571429 36.571429-36.571429z m36.571428 137.142858h73.142857c14.628571 0 27.428571-12.8 27.428572-27.428572s-12.8-27.428571-27.428572-27.428571h-73.142857c-14.628571 0-27.428571 12.8-27.428571 27.428571s12.8 27.428571 27.428571 27.428572z" p-id="4762" fill="#C65624"></path></svg>