<?xml version="1.0" standalone="no"?><!DOCTYPE svg PUBLIC "-//W3C//DTD SVG 1.1//EN" "http://www.w3.org/Graphics/SVG/1.1/DTD/svg11.dtd"><svg t="1590144475147" class="icon" viewBox="0 0 1024 1024" version="1.1" xmlns="http://www.w3.org/2000/svg" p-id="2859" xmlns:xlink="http://www.w3.org/1999/xlink" width="200" height="200"><defs><style type="text/css"></style></defs><path d="M789.845733 724.258543c-58.688537 0-106.379223 47.490724-106.479203 106.279243 0 58.688537 47.690685 106.279242 106.479203 106.279242s106.479203-47.590705 106.479204-106.279242c0-58.688537-47.690685-106.279242-106.479204-106.279243zM276.745948 724.258543c-58.788518 0-106.479203 47.490724-106.479203 106.279243 0 58.688537 47.690685 106.279242 106.479203 106.279242s106.479203-47.590705 106.479203-106.279242c0-58.688537-47.690685-106.279242-106.479203-106.279243z" p-id="2860" fill="#C65624"></path><path d="M991.306385 468.608475l-95.081429-169.16696c-19.396212-23.395431-32.593634-42.491701-63.787541-42.491701h-148.970905V129.574692c0-23.395431-18.99629-42.491701-42.4917-42.4917H42.491701C19.196251 87.082992 0 106.179262 0 129.574692v637.075572c0 23.495411 18.99629 42.491701 42.491701 42.4917h85.083382c10.49795-73.185706 72.985745-129.774653 149.170865-129.774653 76.18512 0 138.772896 56.588947 149.170865 129.774653h214.658075c10.49795-73.185706 72.985745-129.774653 149.170865-129.774653s138.772896 56.588947 149.170865 129.774653h42.29174c11.197813 0 21.995704-4.399141 29.994142-12.397578 7.998438-7.898457 12.397579-18.696348 12.397578-29.994142V554.491701c0.199961-40.392111-32.293693-85.883226-32.293693-85.883226z m-598.183167 66.387034c0 10.697911-8.698301 19.296231-19.296231 19.296231H232.554579c-10.697911 0-19.296231-8.698301-19.296231-19.296231v-24.095294c0-10.697911 8.598321-19.296231 19.296231-19.296231H310.93927c5.099004 0 10.098028-1.999609 13.697324-5.698887 3.599297-3.599297 5.698887-8.598321 5.598907-13.697325V337.834017c0-10.697911 8.698301-19.396212 19.296231-19.396212h24.095294c10.697911 0 19.296231 8.698301 19.296231 19.396212v197.161492z m332.934974 19.296231V341.933216h104.179652c6.898653 0 16.396798 10.098028 16.396798 10.098028l89.582503 166.267526c7.898457 11.697715 16.496778 25.495021 16.496778 36.09295H726.058192z" p-id="2861" fill="#C65624"></path></svg>