<?xml version="1.0" standalone="no"?><!DOCTYPE svg PUBLIC "-//W3C//DTD SVG 1.1//EN" "http://www.w3.org/Graphics/SVG/1.1/DTD/svg11.dtd"><svg t="1589972070656" class="icon" viewBox="0 0 1024 1024" version="1.1" xmlns="http://www.w3.org/2000/svg" p-id="8211" xmlns:xlink="http://www.w3.org/1999/xlink" width="200" height="200"><defs><style type="text/css"></style></defs><path d="M811.994074 629.001481c-108.278519 0-196.077037 87.798519-196.077037 196.077038s87.798519 196.077037 196.077037 196.077037 196.077037-87.798519 196.077037-196.077037-87.608889-196.077037-196.077037-196.077038z m116.432593 223.004445h-108.847408c-2.465185 0.758519-4.93037 1.137778-7.585185 1.137778-15.739259 0-28.444444-12.705185-28.444444-28.444445v-113.777778c0-15.739259 12.705185-28.444444 28.444444-28.444444s28.444444 12.705185 28.444445 28.444444v84.195556h87.988148c15.54963 0 28.065185 12.705185 28.065185 28.065185v0.568889c0.18963 15.54963-12.515556 28.254815-28.065185 28.254815zM21.428148 36.408889h133.499259v151.703704H21.428148zM344.557037 36.408889h606.056296v151.703704H344.557037z" p-id="8212" fill="#C65624"></path><path d="M801.943704 564.148148c55.561481 0 106.951111 18.394074 148.48 48.924445V245.76H344.557037V447.525926l-102.58963-75.851852-87.04 75.851852V245.76H21.428148v701.62963h567.182222c-23.703704-38.305185-37.736296-83.437037-37.736296-131.982223-0.18963-138.808889 112.260741-251.259259 251.06963-251.259259z" p-id="8213" fill="#C65624"></path></svg>