<?xml version="1.0" standalone="no"?><!DOCTYPE svg PUBLIC "-//W3C//DTD SVG 1.1//EN" "http://www.w3.org/Graphics/SVG/1.1/DTD/svg11.dtd"><svg t="1589971394065" class="icon" viewBox="0 0 1024 1024" version="1.1" xmlns="http://www.w3.org/2000/svg" p-id="2538" xmlns:xlink="http://www.w3.org/1999/xlink" width="200" height="200"><defs><style type="text/css"></style></defs><path d="M513.536 305.664c-114.688 0-208.384 93.184-208.384 208.384S398.336 721.92 513.536 721.92s208.384-93.184 208.384-208.384-93.696-207.872-208.384-207.872z m0 342.016c-73.728 0-134.144-59.904-134.144-134.144s59.904-134.144 134.144-134.144 134.144 59.904 134.144 134.144c-0.512 73.728-60.416 134.144-134.144 134.144z" p-id="2539" fill="#ffffff"></path><path d="M964.096 438.784c17.92-9.728 30.72-25.6 36.352-45.568 5.632-19.456 3.072-39.936-7.168-57.344l-80.384-139.264c-10.24-17.408-26.624-30.208-46.08-34.816-19.968-5.12-39.936-2.048-57.344 8.704l-49.664 30.72-87.04-50.688 2.048-64.512c0.512-20.48-6.656-39.424-20.992-54.272-14.336-14.848-33.28-22.528-53.76-22.528H424.448c-20.48 0-39.424 8.192-53.76 22.528-14.336 14.848-21.504 33.792-20.992 54.272l2.048 71.68-87.04 50.176-50.688-31.232c-17.408-10.752-37.376-13.824-57.344-8.704-19.968 5.12-35.84 17.408-46.08 34.816l-76.8 133.632C23.04 354.304 20.48 374.272 26.112 394.24c5.632 19.456 18.432 35.84 36.352 45.568L119.808 471.04v100.864l-50.688 27.648c-17.92 9.728-30.72 25.6-36.352 45.056-5.632 19.456-3.072 39.936 7.168 57.856l68.608 118.784c10.24 17.408 26.624 30.208 46.08 34.816 19.968 5.12 39.936 2.048 57.344-8.704l55.808-34.304 87.04 50.688-2.048 78.336c-0.512 20.48 6.656 39.424 20.992 54.272 14.336 14.848 33.28 22.528 53.76 22.528H588.8c20.48 0 39.424-8.192 53.76-22.528 14.336-14.848 21.504-33.792 20.992-54.272l-1.536-58.368 87.04-50.176 54.784 33.792c17.408 10.752 37.376 13.824 57.344 8.704 19.968-5.12 35.84-17.408 46.08-34.816l80.384-139.264c10.24-17.408 12.8-37.888 7.168-57.344s-18.432-35.84-36.352-45.568l-51.2-27.648V470.528l56.832-31.744z m-92.16 197.12l51.2 28.16-80.896 139.264-54.784-33.792c-23.552-14.336-52.736-14.848-76.288-1.024l-87.04 50.176c-23.552 13.824-37.888 39.424-37.376 66.56l1.536 58.368H427.008l2.048-78.336c0.512-27.136-13.312-52.736-37.376-66.56l-87.04-50.176c-11.776-6.656-24.576-10.24-37.376-10.24-13.312 0-27.136 3.584-38.912 10.752L172.544 783.36l-68.608-119.296 50.688-27.648c24.064-13.312 38.912-37.888 38.912-65.536V470.528c0-27.648-14.848-52.736-38.912-65.536L97.792 373.76l77.312-133.632L225.28 271.36c23.552 14.336 52.736 14.848 76.288 1.024l87.04-50.176c23.552-13.824 37.888-39.424 37.376-66.56l-2.048-72.192H599.04l-1.536 65.024c-0.512 27.136 13.312 52.736 37.376 66.56l87.04 50.176c23.552 13.824 52.736 13.312 76.288-1.024l49.664-30.72 80.384 139.776-56.832 30.72c-24.064 13.312-38.912 37.888-38.912 65.536v100.352c0 27.648 14.848 52.736 39.424 66.048z" p-id="2540" fill="#ffffff"></path></svg>